<?xml version="1.0" encoding="UTF-8"?>
<svg width="512" height="512" viewBox="0 0 512 512" fill="none" xmlns="http://www.w3.org/2000/svg">
  <path d="M256 96C179.3 96 128 147.3 128 224C128 300.7 179.3 352 256 352C332.7 352 384 300.7 384 224C384 147.3 332.7 96 256 96ZM256 320C197.7 320 160 282.3 160 224C160 165.7 197.7 128 256 128C314.3 128 352 165.7 352 224C352 282.3 314.3 320 256 320Z" fill="#FFD700"/>
  <path d="M256 128C197.7 128 160 165.7 160 224C160 282.3 197.7 320 256 320C314.3 320 352 282.3 352 224C352 165.7 314.3 128 256 128ZM256 288C211.8 288 176 252.2 176 208C176 163.8 211.8 128 256 128C300.2 128 336 163.8 336 208C336 252.2 300.2 288 256 288Z" fill="#FFD700"/>
</svg> 